<svg xmlns="http://www.w3.org/2000/svg" xmlns:xlink="http://www.w3.org/1999/xlink" width="79" height="79" viewBox="0 0 79 79">
  <defs>
    <clipPath id="clip-path">
      <rect id="Rectángulo_457458" data-name="Rectángulo 457458" width="54.114" height="55.642" transform="translate(0 0)" fill="#fff"/>
    </clipPath>
  </defs>
  <g id="Grupo_1212391" data-name="Grupo 1212391" transform="translate(-191.742 -830.371)">
    <circle id="Elipse_13754" data-name="Elipse 13754" cx="39.5" cy="39.5" r="39.5" transform="translate(191.742 830.371)" fill="#0f049d"/>
    <g id="Grupo_1208361" data-name="Grupo 1208361" transform="translate(204.169 840.665)">
      <g id="Grupo_1208360" data-name="Grupo 1208360" transform="translate(0 0)" clip-path="url(#clip-path)">
        <path id="Trazado_1268132" data-name="Trazado 1268132" d="M50.441,67.676H31.449a6.625,6.625,0,0,1-6.613-6.613V43.878a6.625,6.625,0,0,1,6.613-6.613h19a6.625,6.625,0,0,1,6.613,6.613V61.063a6.62,6.62,0,0,1-6.622,6.613M31.449,39.187a4.7,4.7,0,0,0-4.69,4.69V61.063a4.7,4.7,0,0,0,4.69,4.69h19a4.7,4.7,0,0,0,4.69-4.69V43.878a4.7,4.7,0,0,0-4.69-4.69Z" transform="translate(-13.946 -20.925)" fill="#fff"/>
        <path id="Trazado_1268133" data-name="Trazado 1268133" d="M59.971,71.525H56.376a.964.964,0,0,1-.961-.961v-4.5a.961.961,0,0,1,1.922,0V69.6H59.01V66.065a.961.961,0,0,1,1.922,0v4.5a.958.958,0,0,1-.961.961" transform="translate(-31.117 -36.557)" fill="#fff"/>
        <path id="Trazado_1268134" data-name="Trazado 1268134" d="M59.035,61.583a.957.957,0,0,1-.692-1.625,1.534,1.534,0,0,0,.442-1.086,1.557,1.557,0,1,0-2.672,1.086.958.958,0,0,1-1.375,1.336,3.48,3.48,0,1,1,4.979,0,.936.936,0,0,1-.682.289" transform="translate(-30.181 -31.104)" fill="#fff"/>
        <path id="Trazado_1268135" data-name="Trazado 1268135" d="M25.211,60.639H20.348a.969.969,0,0,1-.461-.115L12.2,56.285H8.852a.961.961,0,0,1,0-1.922h3.585a.969.969,0,0,1,.461.115l7.7,4.239h4.614a.961.961,0,0,1,0,1.922" transform="translate(-4.431 -30.526)" fill="#fff"/>
        <path id="Trazado_1268136" data-name="Trazado 1268136" d="M15.266,91.437H11.681a.961.961,0,1,1,0-1.922h3.335l7.7-4.239a.969.969,0,0,1,.462-.115H26.8a.961.961,0,1,1,0,1.922H23.427l-7.69,4.239a1.136,1.136,0,0,1-.471.115" transform="translate(-6.02 -47.82)" fill="#fff"/>
        <path id="Trazado_1268137" data-name="Trazado 1268137" d="M26.589,76.32H10.124a.961.961,0,0,1,0-1.922H26.589a.961.961,0,0,1,0,1.922" transform="translate(-5.145 -41.776)" fill="#fff"/>
        <path id="Trazado_1268138" data-name="Trazado 1268138" d="M47.674,97.008a.964.964,0,0,1-.961-.961V89.818a.972.972,0,0,1,.538-.865l1.98-.961V85.464a.961.961,0,1,1,1.922,0v3.124a.972.972,0,0,1-.538.865l-1.98.962v5.632a.958.958,0,0,1-.961.961" transform="translate(-26.23 -47.45)" fill="#fff"/>
        <path id="Trazado_1268139" data-name="Trazado 1268139" d="M70.052,97.008a.964.964,0,0,1-.961-.961V90.415l-1.98-.962a.972.972,0,0,1-.538-.865V85.464a.961.961,0,1,1,1.922,0v2.528l1.98.961a.972.972,0,0,1,.538.865v6.229a.958.958,0,0,1-.961.961" transform="translate(-37.382 -47.45)" fill="#fff"/>
        <path id="Trazado_1268140" data-name="Trazado 1268140" d="M60.344,99.663a.964.964,0,0,1-.961-.961V85.486a.961.961,0,1,1,1.922,0V98.7a.964.964,0,0,1-.961.961" transform="translate(-33.345 -47.463)" fill="#fff"/>
        <path id="Trazado_1268141" data-name="Trazado 1268141" d="M2.691,55.777a2.691,2.691,0,1,1,2.691-2.691,2.7,2.7,0,0,1-2.691,2.691m0-3.45a.769.769,0,1,0,.769.769.771.771,0,0,0-.769-.769" transform="translate(0 -28.298)" fill="#fff"/>
        <path id="Trazado_1268142" data-name="Trazado 1268142" d="M3.984,75.835a2.691,2.691,0,1,1,2.691-2.691,2.7,2.7,0,0,1-2.691,2.691m0-3.46a.769.769,0,1,0,.769.769.771.771,0,0,0-.769-.769" transform="translate(-0.726 -39.561)" fill="#fff"/>
        <path id="Trazado_1268143" data-name="Trazado 1268143" d="M5.518,96.506A2.691,2.691,0,1,1,8.21,93.815a2.7,2.7,0,0,1-2.691,2.691m0-3.45a.769.769,0,1,0,.769.769.771.771,0,0,0-.769-.769" transform="translate(-1.587 -51.168)" fill="#fff"/>
        <path id="Trazado_1268144" data-name="Trazado 1268144" d="M79.653,60.639H74.789a.961.961,0,0,1,0-1.922H79.4l7.7-4.239a.969.969,0,0,1,.462-.115h3.585a.961.961,0,0,1,0,1.922H87.813l-7.69,4.239a1.174,1.174,0,0,1-.471.115" transform="translate(-41.456 -30.526)" fill="#fff"/>
        <path id="Trazado_1268145" data-name="Trazado 1268145" d="M89.908,91.437H86.323a.969.969,0,0,1-.462-.115l-7.7-4.239H74.789a.961.961,0,0,1,0-1.922h3.624a.967.967,0,0,1,.461.115l7.69,4.239H89.9a.961.961,0,0,1,.01,1.922" transform="translate(-41.456 -47.82)" fill="#fff"/>
        <path id="Trazado_1268146" data-name="Trazado 1268146" d="M89.742,76.32H73.277a.961.961,0,0,1,0-1.922H89.742a.961.961,0,1,1,0,1.922" transform="translate(-40.607 -41.776)" fill="#fff"/>
        <path id="Trazado_1268147" data-name="Trazado 1268147" d="M113.828,55.777a2.691,2.691,0,1,1,2.691-2.691,2.7,2.7,0,0,1-2.691,2.691m0-3.45a.769.769,0,1,0,.769.769.771.771,0,0,0-.769-.769" transform="translate(-62.406 -28.298)" fill="#fff"/>
        <path id="Trazado_1268148" data-name="Trazado 1268148" d="M112.535,75.835a2.691,2.691,0,1,1,2.691-2.691,2.7,2.7,0,0,1-2.691,2.691m0-3.46a.769.769,0,1,0,.769.769.771.771,0,0,0-.769-.769" transform="translate(-61.68 -39.561)" fill="#fff"/>
        <path id="Trazado_1268149" data-name="Trazado 1268149" d="M111,96.506a2.691,2.691,0,1,1,2.691-2.691A2.7,2.7,0,0,1,111,96.506m0-3.45a.769.769,0,1,0,.769.769.771.771,0,0,0-.769-.769" transform="translate(-60.818 -51.168)" fill="#fff"/>
        <path id="Trazado_1268150" data-name="Trazado 1268150" d="M58.141,120.029a2.682,2.682,0,1,1,2.682-2.682,2.683,2.683,0,0,1-2.682,2.682m0-3.441a.759.759,0,1,0,.759.759.761.761,0,0,0-.759-.759" transform="translate(-31.141 -64.387)" fill="#fff"/>
        <path id="Trazado_1268151" data-name="Trazado 1268151" d="M71.074,114.023a2.682,2.682,0,1,1,2.682-2.681,2.683,2.683,0,0,1-2.682,2.681m0-3.45a.759.759,0,1,0,.759.759.761.761,0,0,0-.759-.759" transform="translate(-38.404 -61.015)" fill="#fff"/>
        <path id="Trazado_1268152" data-name="Trazado 1268152" d="M45.471,114.023a2.682,2.682,0,1,1,2.682-2.681,2.683,2.683,0,0,1-2.682,2.681m0-3.45a.759.759,0,1,0,.759.759.761.761,0,0,0-.759-.759" transform="translate(-24.027 -61.015)" fill="#fff"/>
        <path id="Trazado_1268153" data-name="Trazado 1268153" d="M57.856,18.262A.964.964,0,0,1,56.9,17.3V10.285a8.385,8.385,0,0,0-8.372-8.362,8.376,8.376,0,0,0-8.372,8.362V17.3a.961.961,0,0,1-1.922,0V10.285A10.3,10.3,0,0,1,55.8,3.008a10.158,10.158,0,0,1,3.018,7.276V17.3a.964.964,0,0,1-.961.961" transform="translate(-21.466 0)" fill="#fff"/>
        <path id="Trazado_1268154" data-name="Trazado 1268154" d="M59.051,24.712a.964.964,0,0,1-.961-.961V17.522a4.118,4.118,0,0,0-4.114-4.114,4.119,4.119,0,0,0-4.114,4.114v6.229a.961.961,0,0,1-1.922,0V17.522a6.036,6.036,0,1,1,12.072,0v6.229a.964.964,0,0,1-.961.961" transform="translate(-26.919 -6.45)" fill="#fff"/>
      </g>
    </g>
  </g>
</svg>
